<?xml version="1.0" encoding="UTF-8"?>
<!DOCTYPE svg PUBLIC "-//W3C//DTD SVG 1.1//EN" "http://www.w3.org/Graphics/SVG/1.1/DTD/svg11.dtd">
<svg xmlns="http://www.w3.org/2000/svg" version="1.1" width="64px" height="64px" style="shape-rendering:geometricPrecision; text-rendering:geometricPrecision; image-rendering:optimizeQuality; fill-rule:evenodd; clip-rule:evenodd" xmlns:xlink="http://www.w3.org/1999/xlink">
<g><path style="opacity:0.998" fill="#222222" d="M 3.5,3.5 C 12.8333,3.5 22.1667,3.5 31.5,3.5C 31.5,22.1667 31.5,40.8333 31.5,59.5C 22.1667,59.5 12.8333,59.5 3.5,59.5C 3.5,40.8333 3.5,22.1667 3.5,3.5 Z"/></g>
<g><path style="opacity:0.994" fill="#222222" d="M 35.5,3.5 C 43.5,3.5 51.5,3.5 59.5,3.5C 59.5,11.5 59.5,19.5 59.5,27.5C 51.5,27.5 43.5,27.5 35.5,27.5C 35.5,19.5 35.5,11.5 35.5,3.5 Z"/></g>
<g><path style="opacity:0.988" fill="#212121" d="M 35.5,33.5 C 39.5,33.5 43.5,33.5 47.5,33.5C 47.5,42.1667 47.5,50.8333 47.5,59.5C 43.5,59.5 39.5,59.5 35.5,59.5C 35.5,50.8333 35.5,42.1667 35.5,33.5 Z"/></g>
<g><path style="opacity:0.97" fill="#222222" d="M 49.5,33.5 C 52.8333,33.5 56.1667,33.5 59.5,33.5C 59.5,37.5 59.5,41.5 59.5,45.5C 56.1667,45.5 52.8333,45.5 49.5,45.5C 49.5,41.5 49.5,37.5 49.5,33.5 Z"/></g>
<g><path style="opacity:0.97" fill="#222222" d="M 49.5,47.5 C 52.8333,47.5 56.1667,47.5 59.5,47.5C 59.5,51.5 59.5,55.5 59.5,59.5C 56.1667,59.5 52.8333,59.5 49.5,59.5C 49.5,55.5 49.5,51.5 49.5,47.5 Z"/></g>
</svg>
