<?xml version="1.0" encoding="UTF-8"?>
<!DOCTYPE svg PUBLIC "-//W3C//DTD SVG 1.1//EN" "http://www.w3.org/Graphics/SVG/1.1/DTD/svg11.dtd">
<svg xmlns="http://www.w3.org/2000/svg" version="1.1" width="64px" height="64px" style="shape-rendering:geometricPrecision; text-rendering:geometricPrecision; image-rendering:optimizeQuality; fill-rule:evenodd; clip-rule:evenodd" xmlns:xlink="http://www.w3.org/1999/xlink">
<g><path style="opacity:0.997" fill="#222222" d="M 3.5,3.5 C 12.1667,3.5 20.8333,3.5 29.5,3.5C 29.5,22.1667 29.5,40.8333 29.5,59.5C 20.8333,59.5 12.1667,59.5 3.5,59.5C 3.5,40.8333 3.5,22.1667 3.5,3.5 Z"/></g>
<g><path style="opacity:0.991" fill="#222222" d="M 34.5,3.5 C 42.8333,3.5 51.1667,3.5 59.5,3.5C 59.5,8.83333 59.5,14.1667 59.5,19.5C 51.1667,19.5 42.8333,19.5 34.5,19.5C 34.5,14.1667 34.5,8.83333 34.5,3.5 Z"/></g>
<g><path style="opacity:0.991" fill="#222222" d="M 34.5,23.5 C 42.8333,23.5 51.1667,23.5 59.5,23.5C 59.5,28.8333 59.5,34.1667 59.5,39.5C 51.1667,39.5 42.8333,39.5 34.5,39.5C 34.5,34.1667 34.5,28.8333 34.5,23.5 Z"/></g>
<g><path style="opacity:0.991" fill="#222222" d="M 34.5,43.5 C 42.8333,43.5 51.1667,43.5 59.5,43.5C 59.5,48.8333 59.5,54.1667 59.5,59.5C 51.1667,59.5 42.8333,59.5 34.5,59.5C 34.5,54.1667 34.5,48.8333 34.5,43.5 Z"/></g>
</svg>
